<svg id="visual" viewBox="0 0 1200 600" width="1200" height="600" xmlns="http://www.w3.org/2000/svg" xmlns:xlink="http://www.w3.org/1999/xlink" version="1.1"><rect x="0" y="0" width="1200" height="600" fill="#2a0000"></rect><path d="M0 363L171 416L343 425L514 366L686 375L857 405L1029 407L1200 447L1200 601L1029 601L857 601L686 601L514 601L343 601L171 601L0 601Z" fill="#f5730a"></path><path d="M0 435L171 444L343 412L514 474L686 401L857 412L1029 406L1200 427L1200 601L1029 601L857 601L686 601L514 601L343 601L171 601L0 601Z" fill="#be511d"></path><path d="M0 451L171 455L343 487L514 440L686 464L857 454L1029 445L1200 443L1200 601L1029 601L857 601L686 601L514 601L343 601L171 601L0 601Z" fill="#85341d"></path><path d="M0 485L171 534L343 513L514 507L686 529L857 493L1029 517L1200 511L1200 601L1029 601L857 601L686 601L514 601L343 601L171 601L0 601Z" fill="#4d1d15"></path><path d="M0 528L171 543L343 573L514 574L686 561L857 549L1029 564L1200 545L1200 601L1029 601L857 601L686 601L514 601L343 601L171 601L0 601Z" fill="#1b0400"></path></svg>